<?xml-stylesheet type="text/css" href="style.css"?>

<svg
  width="447"
  height="113"
  viewBox="0 0 447 113"
  fill="none"
  xmlns="http://www.w3.org/2000/svg">

<path d="M83.6571 76.3867C81.0639 82.02 77.3513 86.2839 72.5228 89.2702C67.8047 92.1519 62.0382 93.652 55.112 93.652C48.5091 93.652 42.6643 92.1194 37.5123 89.0993C32.3638 86.0812 28.3153 81.824 25.3548 76.2648C22.4058 70.6317 20.892 64.0363 20.892 56.408C20.892 48.6737 22.4097 42.0845 25.3509 36.5586L25.3547 36.5513L25.3586 36.544C28.3225 30.8856 32.3719 26.5861 37.5123 23.5728C42.6643 20.5526 48.5091 19.02 55.112 19.02C62.0277 19.02 67.7855 20.5632 72.5 23.5316L72.5087 23.5371L72.5174 23.5425C77.3486 26.529 81.063 30.794 83.6571 36.4294L84.3266 37.884H85.928H101.624H105.269L103.956 34.4835C100.036 24.3314 93.7607 16.4081 85.1261 10.8211C76.512 5.24722 66.4753 2.5 55.112 2.5C45.3859 2.5 36.4566 4.81143 28.3778 9.45674L28.3778 9.4567L28.366 9.46356C20.3869 14.1096 14.0743 20.5804 9.44681 28.8272C4.79935 37.0132 2.5 46.2278 2.5 56.408C2.5 66.5906 4.80043 75.8071 9.4501 83.9946C14.0799 92.147 20.3927 98.5658 28.366 103.208L28.3821 103.218L28.3983 103.227C36.474 107.769 45.3959 110.028 55.112 110.028C66.4664 110.028 76.4967 107.333 85.1086 101.862L85.1174 101.857L85.1261 101.851C93.7541 96.2681 100.031 88.3981 103.953 78.3404L105.282 74.932H101.624H85.928H84.3266L83.6571 76.3867ZM120.678 84.1271L120.687 84.143L120.696 84.1587C125.425 92.3081 131.834 98.7213 139.9 103.359L139.91 103.365L139.921 103.371C147.996 107.913 156.918 110.172 166.634 110.172C176.442 110.172 185.412 107.916 193.492 103.371L193.502 103.365L193.513 103.359C201.583 98.7186 207.95 92.2989 212.584 84.1386C217.236 75.9474 219.534 66.6819 219.534 56.408C219.534 46.1341 217.236 36.8686 212.584 28.6774C207.95 20.5162 201.58 14.1411 193.503 9.59525C185.423 4.95132 176.448 2.644 166.634 2.644C156.912 2.644 147.986 4.9536 139.91 9.59523C131.83 14.1428 125.417 20.5654 120.689 28.8128L120.684 28.8214C116.035 37.0089 113.734 46.2254 113.734 56.408C113.734 66.591 116.035 75.8502 120.678 84.1271ZM184.25 89.2339L184.242 89.2386L184.234 89.2432C179.082 92.2634 173.237 93.796 166.634 93.796C160.035 93.796 154.138 92.265 148.883 89.2385C143.743 86.2238 139.645 81.9211 136.586 76.2585C133.639 70.6268 132.126 64.0334 132.126 56.408C132.126 48.677 133.643 42.0901 136.581 36.5657C139.642 30.896 143.745 26.5892 148.891 23.5728C154.037 20.5557 159.929 19.02 166.634 19.02C173.34 19.02 179.231 20.5557 184.378 23.5727C189.519 26.5861 193.568 30.8856 196.532 36.544L196.543 36.5652L196.554 36.5861C199.581 42.1061 201.142 48.6852 201.142 56.408C201.142 64.0279 199.584 70.6158 196.546 76.2447L196.539 76.2583L196.532 76.272C193.574 81.9194 189.484 86.2176 184.25 89.2339ZM285.074 96.008V93.508H282.574H249.938V6.296V3.796H247.438H234.333H231.833V6.296V106.664V109.164H234.333H282.574H285.074V106.664V96.008ZM347.23 96.008V93.508H344.73H312.094V6.296V3.796H309.594H296.49H293.99V6.296V106.664V109.164H296.49H344.73H347.23V106.664V96.008ZM366.134 109.164H367.889L368.485 107.513L375.953 86.844H416.219L423.687 107.513L424.283 109.164H426.038H439.862H443.426L442.213 105.813L406.069 6.02064L405.471 4.372H403.718H388.598H386.847L386.249 6.01764L349.961 105.81L348.741 109.164H352.31H366.134ZM381.492 71.188L396.086 30.4181L410.68 71.188H381.492Z" fill="#202330" stroke="#FFFDFD" stroke-width="5"/>
</svg>
